<svg width="594" height="302" viewBox="0 0 594 302" fill="none" xmlns="http://www.w3.org/2000/svg">
<g opacity="0.3">
<line x1="592.336" y1="202.317" x2="1" y2="202.317" stroke="#94A3B8"/>
<line x1="592.336" y1="301.5" x2="1" y2="301.5" stroke="#94A3B8"/>
<line x1="592.336" y1="105.722" x2="1" y2="105.722" stroke="#94A3B8"/>
<line x1="592.336" y1="1.5" x2="1" y2="1.5" stroke="#94A3B8"/>
</g>
<path d="M30.5668 114.978L1 136.708V301H592.336L562.769 121.598L533.202 1L503.636 174.81L474.069 182.757L444.502 43.8227L414.935 21.0333L385.368 226.835L355.802 104.353L326.235 88.183L296.668 60.7983L267.101 189.639L237.534 257.959L207.968 214.522L178.401 217.556L148.834 126.057L119.267 171.791L89.7004 146.844L60.1336 61.7134L30.5668 114.978Z" fill="url(#paint0_linear_6_33)"/>
<path d="M1 136.708L30.5668 114.978L60.1336 61.7134L89.7004 146.844L119.267 171.791L148.834 126.057L178.401 217.556L207.968 214.522L237.534 257.959L267.101 189.639L296.668 60.7983L326.235 88.183L355.802 104.353L385.368 226.835L414.935 21.0333L444.502 43.8227L474.069 182.757L503.636 174.809L533.202 1L562.769 121.598L592.336 301" stroke="#7C3AED" stroke-width="2"/>
<line x1="503.947" y1="1" x2="503.947" y2="301" stroke="#94A3B8" stroke-dasharray="4 4"/>
<circle cx="504" cy="174.315" r="4" fill="#7C3AED"/>
<g filter="url(#filter0_d_6_33)">
<rect x="430.447" y="49" width="146" height="40" rx="4" fill="white" shape-rendering="crispEdges"/>
<path d="M442.683 74.1392C442.1 74.1392 441.575 74.0232 441.107 73.7912C440.64 73.5592 440.265 73.241 439.984 72.8366C439.702 72.4323 439.548 71.9716 439.521 71.4545H440.714C440.761 71.9152 440.97 72.2964 441.341 72.598C441.715 72.8963 442.163 73.0455 442.683 73.0455C443.101 73.0455 443.472 72.9477 443.797 72.7521C444.125 72.5566 444.382 72.2881 444.567 71.9467C444.756 71.602 444.851 71.2126 444.851 70.7784C444.851 70.3343 444.753 69.9382 444.557 69.5902C444.365 69.2389 444.1 68.9621 443.762 68.7599C443.424 68.5578 443.038 68.455 442.604 68.4517C442.292 68.4484 441.972 68.4964 441.644 68.5959C441.316 68.692 441.046 68.8163 440.834 68.9688L439.68 68.8295L440.297 63.8182H445.587V64.9119H441.331L440.973 67.9148H441.033C441.241 67.7491 441.503 67.6115 441.818 67.5021C442.133 67.3928 442.461 67.3381 442.803 67.3381C443.426 67.3381 443.981 67.4872 444.468 67.7855C444.959 68.0805 445.343 68.4848 445.621 68.9986C445.903 69.5123 446.044 70.099 446.044 70.7585C446.044 71.4081 445.898 71.9882 445.606 72.4986C445.318 73.0057 444.92 73.4067 444.413 73.7017C443.906 73.9934 443.329 74.1392 442.683 74.1392ZM449.406 72.608L449.326 73.1449C449.27 73.5227 449.184 73.9271 449.068 74.358C448.955 74.7888 448.838 75.1948 448.715 75.576C448.592 75.9571 448.491 76.2604 448.412 76.4858H447.517C447.56 76.2737 447.616 75.9936 447.686 75.6456C447.755 75.2976 447.825 74.9081 447.895 74.4773C447.968 74.0497 448.027 73.6122 448.074 73.1648L448.133 72.608H449.406ZM453.923 63.8182V74H452.69V65.1108H452.63L450.144 66.7614V65.5085L452.69 63.8182H453.923ZM460.232 74.1392C459.814 74.1326 459.396 74.053 458.979 73.9006C458.561 73.7481 458.18 73.4912 457.835 73.13C457.491 72.7654 457.214 72.2732 457.005 71.6534C456.796 71.0303 456.692 70.2481 456.692 69.3068C456.692 68.4053 456.776 67.6065 456.945 66.9105C457.114 66.2112 457.36 65.6229 457.681 65.1456C458.003 64.665 458.391 64.3004 458.845 64.0518C459.302 63.8033 459.817 63.679 460.391 63.679C460.961 63.679 461.468 63.7933 461.912 64.022C462.359 64.2474 462.724 64.5623 463.006 64.9666C463.288 65.371 463.47 65.8366 463.553 66.3636H462.34C462.227 65.9062 462.008 65.5268 461.683 65.2251C461.359 64.9235 460.928 64.7727 460.391 64.7727C459.602 64.7727 458.98 65.1158 458.526 65.8018C458.076 66.4879 457.849 67.4508 457.845 68.6903H457.925C458.11 68.4086 458.331 68.1683 458.586 67.9695C458.845 67.7673 459.13 67.6115 459.441 67.5021C459.753 67.3928 460.083 67.3381 460.431 67.3381C461.014 67.3381 461.547 67.4839 462.031 67.7756C462.515 68.0639 462.903 68.4633 463.195 68.9737C463.486 69.4808 463.632 70.0625 463.632 70.7188C463.632 71.3485 463.491 71.9252 463.21 72.4489C462.928 72.9692 462.532 73.3835 462.021 73.6918C461.514 73.9967 460.918 74.1458 460.232 74.1392ZM460.232 73.0455C460.649 73.0455 461.024 72.9411 461.355 72.7322C461.69 72.5234 461.953 72.2434 462.146 71.892C462.341 71.5407 462.439 71.1496 462.439 70.7188C462.439 70.2978 462.345 69.915 462.156 69.5703C461.97 69.2223 461.713 68.9455 461.385 68.7401C461.06 68.5346 460.689 68.4318 460.271 68.4318C459.957 68.4318 459.663 68.4948 459.391 68.6207C459.12 68.7434 458.881 68.9124 458.676 69.1278C458.473 69.3433 458.314 69.5902 458.198 69.8686C458.082 70.1437 458.024 70.4337 458.024 70.7386C458.024 71.143 458.119 71.5208 458.308 71.8722C458.5 72.2235 458.762 72.5069 459.093 72.7223C459.428 72.9377 459.807 73.0455 460.232 73.0455ZM474.954 68.0739L473.9 68.3722C473.834 68.1965 473.736 68.0258 473.606 67.8601C473.481 67.6911 473.308 67.5518 473.089 67.4425C472.871 67.3331 472.591 67.2784 472.249 67.2784C471.782 67.2784 471.392 67.3861 471.081 67.6016C470.773 67.8137 470.619 68.0838 470.619 68.4119C470.619 68.7036 470.725 68.9339 470.937 69.103C471.149 69.272 471.48 69.4129 471.931 69.5256L473.065 69.804C473.747 69.9697 474.256 70.2232 474.591 70.5646C474.926 70.9027 475.093 71.3385 475.093 71.8722C475.093 72.3097 474.967 72.7008 474.715 73.0455C474.467 73.3902 474.119 73.6619 473.671 73.8608C473.224 74.0597 472.703 74.1591 472.11 74.1591C471.331 74.1591 470.686 73.9901 470.176 73.652C469.666 73.3139 469.343 72.8201 469.207 72.1705L470.32 71.892C470.426 72.303 470.627 72.6113 470.922 72.8168C471.22 73.0223 471.61 73.125 472.09 73.125C472.637 73.125 473.071 73.009 473.393 72.777C473.718 72.5417 473.88 72.2599 473.88 71.9318C473.88 71.6667 473.787 71.4446 473.602 71.2656C473.416 71.0833 473.131 70.9474 472.746 70.858L471.474 70.5597C470.774 70.3939 470.261 70.1371 469.932 69.7891C469.608 69.4377 469.445 68.9986 469.445 68.4716C469.445 68.0407 469.566 67.6596 469.808 67.3281C470.053 66.9967 470.387 66.7365 470.807 66.5476C471.232 66.3587 471.712 66.2642 472.249 66.2642C473.005 66.2642 473.598 66.4299 474.029 66.7614C474.463 67.0928 474.771 67.5303 474.954 68.0739ZM480.061 74.1591C479.325 74.1591 478.69 73.9967 478.157 73.6719C477.626 73.3438 477.217 72.8864 476.929 72.2997C476.644 71.7098 476.501 71.0237 476.501 70.2415C476.501 69.4593 476.644 68.7699 476.929 68.1733C477.217 67.5734 477.618 67.1061 478.132 66.7713C478.649 66.4332 479.252 66.2642 479.942 66.2642C480.339 66.2642 480.732 66.3305 481.12 66.4631C481.508 66.5956 481.861 66.8111 482.179 67.1094C482.497 67.4044 482.75 67.7955 482.939 68.2827C483.128 68.7699 483.223 69.3698 483.223 70.0824V70.5795H477.336V69.5653H482.03C482.03 69.1345 481.943 68.75 481.771 68.4119C481.602 68.0739 481.36 67.8071 481.045 67.6115C480.734 67.416 480.366 67.3182 479.942 67.3182C479.474 67.3182 479.07 67.4342 478.728 67.6662C478.39 67.8949 478.13 68.1932 477.948 68.5611C477.766 68.929 477.674 69.3234 477.674 69.7443V70.4205C477.674 70.9972 477.774 71.486 477.973 71.8871C478.175 72.2848 478.455 72.5881 478.813 72.7969C479.171 73.0024 479.587 73.1051 480.061 73.1051C480.369 73.1051 480.647 73.062 480.896 72.9759C481.148 72.8864 481.365 72.7538 481.547 72.5781C481.73 72.3991 481.871 72.1771 481.97 71.9119L483.103 72.2301C482.984 72.6146 482.784 72.9527 482.502 73.2443C482.22 73.5327 481.872 73.758 481.458 73.9205C481.044 74.0795 480.578 74.1591 480.061 74.1591ZM488.09 77.0227C487.523 77.0227 487.036 76.9498 486.628 76.804C486.221 76.6615 485.881 76.4725 485.609 76.2372C485.341 76.0052 485.127 75.7566 484.968 75.4915L485.902 74.8352C486.009 74.9744 486.143 75.1335 486.305 75.3125C486.468 75.4948 486.69 75.6522 486.971 75.7848C487.256 75.9207 487.629 75.9886 488.09 75.9886C488.706 75.9886 489.215 75.8395 489.616 75.5412C490.017 75.2429 490.218 74.7756 490.218 74.1392V72.5881H490.118C490.032 72.7273 489.91 72.8996 489.75 73.1051C489.595 73.3073 489.369 73.4879 489.074 73.647C488.783 73.8028 488.388 73.8807 487.891 73.8807C487.275 73.8807 486.721 73.7348 486.231 73.4432C485.743 73.1515 485.357 72.7273 485.072 72.1705C484.79 71.6136 484.65 70.9375 484.65 70.142C484.65 69.3598 484.787 68.6787 485.062 68.0987C485.337 67.5154 485.72 67.0646 486.211 66.7464C486.701 66.425 487.268 66.2642 487.911 66.2642C488.408 66.2642 488.803 66.3471 489.094 66.5128C489.389 66.6752 489.615 66.8608 489.77 67.0696C489.929 67.2751 490.052 67.4441 490.138 67.5767H490.258V66.3636H491.391V74.2188C491.391 74.875 491.242 75.4086 490.944 75.8196C490.649 76.2339 490.251 76.5372 489.75 76.7294C489.253 76.925 488.7 77.0227 488.09 77.0227ZM488.05 72.8267C488.521 72.8267 488.919 72.719 489.243 72.5036C489.568 72.2881 489.815 71.9782 489.984 71.5739C490.153 71.1695 490.238 70.6856 490.238 70.1222C490.238 69.572 490.155 69.0864 489.989 68.6655C489.823 68.2446 489.578 67.9148 489.253 67.6761C488.929 67.4375 488.527 67.3182 488.05 67.3182C487.553 67.3182 487.139 67.4441 486.807 67.696C486.479 67.9479 486.232 68.286 486.067 68.7102C485.904 69.1345 485.823 69.6051 485.823 70.1222C485.823 70.6525 485.906 71.1214 486.072 71.5291C486.241 71.9335 486.489 72.2517 486.817 72.4837C487.149 72.7124 487.56 72.8267 488.05 72.8267ZM494.394 74.0795C494.149 74.0795 493.938 73.9917 493.763 73.8161C493.587 73.6404 493.499 73.4299 493.499 73.1847C493.499 72.9394 493.587 72.7289 493.763 72.5533C493.938 72.3776 494.149 72.2898 494.394 72.2898C494.639 72.2898 494.85 72.3776 495.025 72.5533C495.201 72.7289 495.289 72.9394 495.289 73.1847C495.289 73.3471 495.247 73.4962 495.165 73.6321C495.085 73.768 494.977 73.8774 494.841 73.9602C494.709 74.0398 494.56 74.0795 494.394 74.0795ZM499.144 72.608L499.065 73.1449C499.008 73.5227 498.922 73.9271 498.806 74.358C498.694 74.7888 498.576 75.1948 498.453 75.576C498.331 75.9571 498.23 76.2604 498.15 76.4858H497.255C497.298 76.2737 497.355 75.9936 497.424 75.6456C497.494 75.2976 497.563 74.9081 497.633 74.4773C497.706 74.0497 497.766 73.6122 497.812 73.1648L497.872 72.608H499.144ZM508.815 63.8182V74H507.582V65.1108H507.523L505.037 66.7614V65.5085L507.582 63.8182H508.815ZM515.184 74.1392C514.528 74.1392 513.943 74.0265 513.429 73.8011C512.919 73.5758 512.512 73.2625 512.211 72.8615C511.913 72.4571 511.75 71.9882 511.724 71.4545H512.977C513.003 71.7827 513.116 72.0661 513.315 72.3047C513.513 72.54 513.774 72.7223 514.095 72.8516C514.417 72.9808 514.773 73.0455 515.164 73.0455C515.602 73.0455 515.989 72.9692 516.327 72.8168C516.665 72.6643 516.931 72.4522 517.123 72.1804C517.315 71.9086 517.411 71.5938 517.411 71.2358C517.411 70.8613 517.318 70.5315 517.133 70.2464C516.947 69.9581 516.675 69.7327 516.317 69.5703C515.959 69.4079 515.522 69.3267 515.005 69.3267H514.19V68.233H515.005C515.409 68.233 515.764 68.16 516.069 68.0142C516.377 67.8684 516.617 67.6629 516.79 67.3977C516.965 67.1326 517.053 66.821 517.053 66.4631C517.053 66.1184 516.977 65.8184 516.825 65.5632C516.672 65.308 516.457 65.1091 516.178 64.9666C515.903 64.8241 515.578 64.7528 515.204 64.7528C514.852 64.7528 514.521 64.8175 514.209 64.9467C513.901 65.0727 513.649 65.2566 513.454 65.4986C513.258 65.7372 513.152 66.0256 513.136 66.3636H511.942C511.962 65.83 512.123 65.3627 512.425 64.9616C512.726 64.5573 513.121 64.2424 513.608 64.017C514.098 63.7917 514.637 63.679 515.224 63.679C515.853 63.679 516.394 63.8066 516.844 64.0618C517.295 64.3137 517.642 64.6468 517.883 65.0611C518.125 65.4754 518.246 65.9228 518.246 66.4034C518.246 66.9768 518.096 67.4657 517.794 67.87C517.496 68.2744 517.09 68.5545 516.576 68.7102V68.7898C517.219 68.8958 517.721 69.1693 518.082 69.6101C518.444 70.0476 518.624 70.5895 518.624 71.2358C518.624 71.7893 518.473 72.2865 518.172 72.7273C517.874 73.1648 517.466 73.5095 516.949 73.7614C516.432 74.0133 515.843 74.1392 515.184 74.1392ZM527.499 74.1591C526.862 74.1591 526.3 73.9983 525.813 73.6768C525.326 73.352 524.945 72.8946 524.67 72.3047C524.395 71.7114 524.257 71.0104 524.257 70.2017C524.257 69.3996 524.395 68.7036 524.67 68.1136C524.945 67.5237 525.328 67.0679 525.818 66.7464C526.309 66.425 526.875 66.2642 527.518 66.2642C528.016 66.2642 528.408 66.3471 528.697 66.5128C528.988 66.6752 529.21 66.8608 529.363 67.0696C529.519 67.2751 529.64 67.4441 529.726 67.5767H529.825V63.8182H530.999V74H529.865V72.8267H529.726C529.64 72.9659 529.517 73.1416 529.358 73.3537C529.199 73.5625 528.972 73.7498 528.677 73.9155C528.382 74.0779 527.989 74.1591 527.499 74.1591ZM527.658 73.1051C528.128 73.1051 528.526 72.9825 528.851 72.7372C529.176 72.4886 529.423 72.1456 529.592 71.7081C529.761 71.2673 529.845 70.7585 529.845 70.1818C529.845 69.6117 529.762 69.1129 529.597 68.6854C529.431 68.2545 529.186 67.9197 528.861 67.6811C528.536 67.4392 528.135 67.3182 527.658 67.3182C527.16 67.3182 526.746 67.4458 526.415 67.701C526.087 67.9529 525.84 68.2959 525.674 68.7301C525.512 69.161 525.43 69.6449 525.43 70.1818C525.43 70.7254 525.513 71.2192 525.679 71.6634C525.848 72.1042 526.097 72.4555 526.425 72.7173C526.756 72.9759 527.167 73.1051 527.658 73.1051ZM536.512 74.1591C535.776 74.1591 535.142 73.9967 534.608 73.6719C534.078 73.3438 533.668 72.8864 533.38 72.2997C533.095 71.7098 532.952 71.0237 532.952 70.2415C532.952 69.4593 533.095 68.7699 533.38 68.1733C533.668 67.5734 534.069 67.1061 534.583 66.7713C535.1 66.4332 535.703 66.2642 536.393 66.2642C536.79 66.2642 537.183 66.3305 537.571 66.4631C537.959 66.5956 538.312 66.8111 538.63 67.1094C538.948 67.4044 539.202 67.7955 539.391 68.2827C539.579 68.7699 539.674 69.3698 539.674 70.0824V70.5795H533.788V69.5653H538.481C538.481 69.1345 538.395 68.75 538.222 68.4119C538.053 68.0739 537.811 67.8071 537.496 67.6115C537.185 67.416 536.817 67.3182 536.393 67.3182C535.925 67.3182 535.521 67.4342 535.18 67.6662C534.842 67.8949 534.581 68.1932 534.399 68.5611C534.217 68.929 534.126 69.3234 534.126 69.7443V70.4205C534.126 70.9972 534.225 71.486 534.424 71.8871C534.626 72.2848 534.906 72.5881 535.264 72.7969C535.622 73.0024 536.038 73.1051 536.512 73.1051C536.82 73.1051 537.099 73.062 537.347 72.9759C537.599 72.8864 537.816 72.7538 537.999 72.5781C538.181 72.3991 538.322 72.1771 538.421 71.9119L539.555 72.2301C539.435 72.6146 539.235 72.9527 538.953 73.2443C538.671 73.5327 538.323 73.758 537.909 73.9205C537.495 74.0795 537.029 74.1591 536.512 74.1591ZM548.797 66.3636V67.358H544.68V66.3636H548.797ZM545.913 74V65.3097C545.913 64.8722 546.016 64.5076 546.222 64.2159C546.427 63.9242 546.694 63.7055 547.022 63.5597C547.35 63.4138 547.696 63.3409 548.061 63.3409C548.349 63.3409 548.585 63.3641 548.767 63.4105C548.949 63.4569 549.085 63.5 549.175 63.5398L548.837 64.554C548.777 64.5341 548.694 64.5092 548.588 64.4794C548.485 64.4496 548.349 64.4347 548.18 64.4347C547.793 64.4347 547.512 64.5324 547.34 64.728C547.171 64.9235 547.087 65.2102 547.087 65.5881V74H545.913ZM553.328 74.1591C552.593 74.1591 551.958 73.9967 551.424 73.6719C550.894 73.3438 550.485 72.8864 550.196 72.2997C549.911 71.7098 549.769 71.0237 549.769 70.2415C549.769 69.4593 549.911 68.7699 550.196 68.1733C550.485 67.5734 550.886 67.1061 551.399 66.7713C551.916 66.4332 552.52 66.2642 553.209 66.2642C553.607 66.2642 554 66.3305 554.387 66.4631C554.775 66.5956 555.128 66.8111 555.446 67.1094C555.765 67.4044 556.018 67.7955 556.207 68.2827C556.396 68.7699 556.49 69.3698 556.49 70.0824V70.5795H550.604V69.5653H555.297C555.297 69.1345 555.211 68.75 555.039 68.4119C554.87 68.0739 554.628 67.8071 554.313 67.6115C554.001 67.416 553.633 67.3182 553.209 67.3182C552.742 67.3182 552.337 67.4342 551.996 67.6662C551.658 67.8949 551.398 68.1932 551.215 68.5611C551.033 68.929 550.942 69.3234 550.942 69.7443V70.4205C550.942 70.9972 551.041 71.486 551.24 71.8871C551.443 72.2848 551.723 72.5881 552.081 72.7969C552.439 73.0024 552.854 73.1051 553.328 73.1051C553.637 73.1051 553.915 73.062 554.164 72.9759C554.416 72.8864 554.633 72.7538 554.815 72.5781C554.997 72.3991 555.138 72.1771 555.238 71.9119L556.371 72.2301C556.252 72.6146 556.051 72.9527 555.769 73.2443C555.488 73.5327 555.14 73.758 554.725 73.9205C554.311 74.0795 553.845 74.1591 553.328 74.1591ZM564.287 66.3636L561.463 74H560.27L557.446 66.3636H558.719L560.827 72.4489H560.906L563.014 66.3636H564.287ZM566.212 74.0795C565.967 74.0795 565.757 73.9917 565.581 73.8161C565.405 73.6404 565.317 73.4299 565.317 73.1847C565.317 72.9394 565.405 72.7289 565.581 72.5533C565.757 72.3776 565.967 72.2898 566.212 72.2898C566.458 72.2898 566.668 72.3776 566.844 72.5533C567.019 72.7289 567.107 72.9394 567.107 73.1847C567.107 73.3471 567.066 73.4962 566.983 73.6321C566.903 73.768 566.796 73.8774 566.66 73.9602C566.527 74.0398 566.378 74.0795 566.212 74.0795Z" fill="#0F172A"/>
</g>
<defs>
<filter id="filter0_d_6_33" x="414.447" y="37" width="178" height="72" filterUnits="userSpaceOnUse" color-interpolation-filters="sRGB">
<feFlood flood-opacity="0" result="BackgroundImageFix"/>
<feColorMatrix in="SourceAlpha" type="matrix" values="0 0 0 0 0 0 0 0 0 0 0 0 0 0 0 0 0 0 127 0" result="hardAlpha"/>
<feOffset dy="4"/>
<feGaussianBlur stdDeviation="8"/>
<feComposite in2="hardAlpha" operator="out"/>
<feColorMatrix type="matrix" values="0 0 0 0 0.0588235 0 0 0 0 0.0901961 0 0 0 0 0.164706 0 0 0 0.15 0"/>
<feBlend mode="normal" in2="BackgroundImageFix" result="effect1_dropShadow_6_33"/>
<feBlend mode="normal" in="SourceGraphic" in2="effect1_dropShadow_6_33" result="shape"/>
</filter>
<linearGradient id="paint0_linear_6_33" x1="296.668" y1="64.4506" x2="296.668" y2="301" gradientUnits="userSpaceOnUse">
<stop stop-color="#7C3AED" stop-opacity="0.5"/>
<stop offset="1" stop-color="#7C3AED" stop-opacity="0"/>
</linearGradient>
</defs>
</svg>
