<?xml version="1.0" standalone="no"?>
<!DOCTYPE svg PUBLIC "-//W3C//DTD SVG 20010904//EN"
 "http://www.w3.org/TR/2001/REC-SVG-20010904/DTD/svg10.dtd">
<svg version="1.0" xmlns="http://www.w3.org/2000/svg"
 width="300.000000pt" height="300.000000pt" viewBox="0 0 300.000000 300.000000"
 preserveAspectRatio="xMidYMid meet">

<g transform="translate(0.000000,300.000000) scale(0.100000,-0.100000)"
fill="#0f172a" stroke="none">
<path d="M1265 2916 c-541 -103 -946 -453 -1115 -965 -52 -157 -70 -274 -70
-451 0 -177 18 -294 70 -451 159 -481 526 -820 1026 -946 102 -26 122 -28 324
-28 202 0 222 2 324 28 500 126 867 465 1026 946 52 157 70 274 70 451 0 177
-18 294 -70 451 -158 479 -526 820 -1020 945 -92 23 -129 27 -300 30 -134 2
-217 -1 -265 -10z m520 -320 c464 -124 808 -531 843 -998 27 -352 -90 -664
-340 -909 -184 -181 -449 -301 -701 -318 -54 -3 -100 -4 -103 -2 -5 6 -5 2256
0 2262 12 12 213 -12 301 -35z"/>
</g>
</svg>
