<?xml version="1.0" standalone="no"?>
<!DOCTYPE svg PUBLIC "-//W3C//DTD SVG 20010904//EN"
 "http://www.w3.org/TR/2001/REC-SVG-20010904/DTD/svg10.dtd">
<svg version="1.0" xmlns="http://www.w3.org/2000/svg"
 width="300.000000pt" height="300.000000pt" viewBox="0 0 300.000000 300.000000"
 preserveAspectRatio="xMidYMid meet">

<g transform="translate(0.000000,300.000000) scale(0.100000,-0.100000)"
fill="#fff" stroke="none">
<path d="M1350 2924 c-81 -10 -239 -48 -319 -76 -201 -71 -374 -181 -531 -338
-204 -203 -339 -456 -397 -747 -24 -122 -24 -404 0 -526 58 -291 193 -544 397
-747 204 -204 431 -327 721 -392 150 -33 408 -33 558 0 290 65 517 188 721
392 204 203 339 456 397 747 24 122 24 404 0 526 -101 502 -448 912 -917 1082
-147 53 -272 76 -440 80 -85 2 -171 1 -190 -1z m170 -1424 l0 -1140 -47 0
c-66 0 -174 17 -263 40 -560 144 -928 706 -835 1276 55 341 250 626 552 807
150 91 362 152 536 156 l57 1 0 -1140z"/>
</g>
</svg>
