<svg width="53" height="53" viewBox="0 0 53 53" fill="none" xmlns="http://www.w3.org/2000/svg">
<path fill-rule="evenodd" clip-rule="evenodd" d="M26.5 3.3125C13.6951 3.3125 3.3125 13.9539 3.3125 27.09C3.3125 37.5969 9.9582 46.4992 19.1711 49.6461C20.3305 49.8635 20.7549 49.1285 20.7549 48.4971C20.7549 47.9277 20.7342 46.4371 20.7238 44.4496C14.2748 45.8885 12.9084 41.2613 12.9084 41.2613C11.8525 38.5182 10.3309 37.7832 10.3309 37.7832C8.22949 36.3029 10.4861 36.334 10.4861 36.334C12.8152 36.4996 14.0367 38.7873 14.0367 38.7873C16.107 42.4207 19.4609 41.3752 20.7859 40.7645C20.993 39.2324 21.5934 38.1766 22.2559 37.5865C17.1111 36.9861 11.6973 34.9469 11.6973 25.8375C11.6973 23.2393 12.5979 21.1172 14.0781 19.4609C13.84 18.8605 13.043 16.4383 14.3059 13.1672C14.3059 13.1672 16.252 12.5254 20.6824 15.5998C22.5354 15.0719 24.5125 14.8131 26.4896 14.8027C28.4564 14.8131 30.4439 15.0719 32.2969 15.5998C36.7273 12.5254 38.6631 13.1672 38.6631 13.1672C39.926 16.4383 39.1289 18.8605 38.8908 19.4609C40.3711 21.1275 41.2717 23.2496 41.2717 25.8375C41.2717 34.9676 35.8475 36.9758 30.682 37.5658C31.5102 38.3008 32.2555 39.75 32.2555 41.9652C32.2555 45.1432 32.2244 47.7104 32.2244 48.4867C32.2244 49.1182 32.6385 49.8635 33.8186 49.6254C43.0522 46.4889 49.6875 37.5865 49.6875 27.09C49.6875 13.9539 39.3049 3.3125 26.5 3.3125Z" fill="white"/>
</svg>
